<?xml version="1.0" encoding="utf-8"?>
<!-- Generator: Adobe Illustrator 24.3.0, SVG Export Plug-In . SVG Version: 6.00 Build 0)  -->
<svg version="1.1" id="Layer_1" xmlns="http://www.w3.org/2000/svg" xmlns:xlink="http://www.w3.org/1999/xlink" x="0px" y="0px"
	 viewBox="0 0 300 300" enable-background="new 0 0 300 300" xml:space="preserve">
<g>
	<path d="M247.007,75.015c1.207-2.591,0.087-5.672-2.506-6.881l-29.979-13.979c-1.244-0.581-2.668-0.642-3.96-0.172
		c-1.289,0.469-2.34,1.432-2.921,2.677l-15.506,33.253l-7.58-22.266c-0.715-2.099-2.686-3.51-4.903-3.51H77.857
		c-1.557,0-3.031,0.701-4.015,1.908L53.67,90.814c-1.126,1.383-1.46,3.25-0.886,4.938l50.065,147.069
		c0.714,2.099,2.686,3.509,4.9,3.509h109.384c2.86,0,5.18-2.318,5.18-5.178c0-2.86-2.319-5.178-5.18-5.178H111.457L64.917,99.262
		l24.411,0.005c0,0,0,0,0.001,0c1.766,0,3.412-0.901,4.363-2.389c0.95-1.489,1.077-3.361,0.334-4.963L85.96,74.491h89.987
		l9.866,28.98l-34.446,73.872c-0.399,0.853-0.547,1.788-0.454,2.708c-0.001,0.001-0.003,0.001-0.006,0.002l3.257,32.149
		c0.184,1.816,1.309,3.4,2.963,4.172c0.696,0.324,1.443,0.483,2.188,0.483c1.021,0,2.037-0.302,2.911-0.896l26.722-18.17v-0.002
		c0.747-0.507,1.371-1.213,1.781-2.091l15.307-32.823l27.214,79.944c0.734,2.153,2.746,3.51,4.901,3.51
		c0.554,0,1.116-0.089,1.668-0.277c2.708-0.922,4.154-3.864,3.233-6.571l-30.693-90.164L247.007,75.015z M68.576,88.907l8.063-9.9
		l4.585,9.903L68.576,88.907z M214.839,65.727l20.594,9.604L230.7,85.482l-20.597-9.603L214.839,65.727z M162.128,188.074
		l13.464,6.278l-12.002,8.16L162.128,188.074z M183.533,186.63l-20.594-9.604l42.79-91.763l20.593,9.604L183.533,186.63z"/>
	<path d="M204.084,103.424l-20.928,44.88c-1.208,2.592-0.088,5.672,2.505,6.881c0.708,0.33,1.452,0.486,2.184,0.486
		c1.95,0,3.818-1.107,4.696-2.991l20.927-44.879c1.21-2.593,0.089-5.673-2.503-6.881
		C208.373,99.712,205.293,100.833,204.084,103.424z"/>
	<path d="M183.379,160.077c-2.591-1.209-5.672-0.087-6.881,2.504l-0.706,1.514c-1.207,2.591-0.085,5.672,2.506,6.881
		c0.708,0.329,1.452,0.486,2.184,0.486c1.95,0,3.818-1.108,4.697-2.992l0.705-1.512
		C187.092,164.366,185.971,161.285,183.379,160.077z"/>
	<path d="M92.145,109.681c-2.86,0-5.178,2.318-5.178,5.178c0,2.86,2.318,5.178,5.178,5.178h0.86c2.86,0,5.177-2.317,5.177-5.178
		c0-2.859-2.317-5.178-5.177-5.178H92.145z"/>
	<path d="M161.201,120.036c2.86,0,5.178-2.317,5.178-5.178c0-2.859-2.317-5.178-5.178-5.178h-52.449
		c-2.859,0-5.178,2.318-5.178,5.178c0,2.86,2.319,5.178,5.178,5.178H161.201z"/>
	<path d="M154.821,155.233c0-2.859-2.318-5.178-5.178-5.178h-43.754c-2.86,0-5.177,2.318-5.177,5.178
		c0,2.86,2.317,5.178,5.177,5.178h43.754C152.503,160.41,154.821,158.093,154.821,155.233z"/>
	<path d="M119.633,190.429c-2.86,0-5.178,2.318-5.178,5.178c0,2.859,2.318,5.178,5.178,5.178h20.944
		c2.859,0,5.177-2.318,5.177-5.178c0-2.859-2.317-5.178-5.177-5.178H119.633z"/>
</g>
</svg>
