<?xml version="1.0" encoding="iso-8859-1"?>
<!-- Generator: Adobe Illustrator 19.0.0, SVG Export Plug-In . SVG Version: 6.00 Build 0)  -->
<svg version="1.1" id="Capa_1" xmlns="http://www.w3.org/2000/svg" xmlns:xlink="http://www.w3.org/1999/xlink" x="0px" y="0px"
	 viewBox="0 0 470 470" style="enable-background:new 0 0 470 470;" xml:space="preserve">
<g>
	<path style="fill:#FFFFFF;" d="M403.622,241.092h-23.65c-4.143,0-7.5-3.357-7.5-7.5c0-0.002-15-0.002-15-0.002
		c0,4.145-3.357,7.502-7.5,7.502h-22.824l-40.507,68.922l38.851,66.105h78.142c16.866-20.122,30.202-43.292,39.054-68.555
		L403.622,241.092z M357.16,293.785c0,4.142-3.358,7.5-7.5,7.5c-2.33,0-4.412-1.063-5.788-2.729
		c-0.306-0.371-0.576-0.771-0.807-1.196c-0.577-1.063-0.905-2.28-0.905-3.575c0-0.425,0.044-0.838,0.112-1.243
		c0.097-0.583,0.254-1.147,0.478-1.676c0.38-0.897,0.929-1.706,1.607-2.384c1.357-1.357,3.232-2.196,5.303-2.196
		C353.802,286.285,357.16,289.643,357.16,293.785z M379.66,331.285c-2.963,0-5.517-1.723-6.735-4.217
		c-0.485-0.993-0.765-2.104-0.765-3.283c0-1.813,0.643-3.475,1.712-4.771c0.458-0.556,0.996-1.044,1.594-1.448
		c0.264-0.179,0.544-0.334,0.832-0.479c1.012-0.509,2.151-0.802,3.362-0.802c4.142,0,7.5,3.358,7.5,7.5
		c0,0.478-0.049,0.944-0.135,1.398C386.37,328.656,383.324,331.285,379.66,331.285z"/>
	<path style="fill:#C1E8E6;" d="M379.972,226.092h23.651l38.444-65.414c-9.275-25.76-23.217-49.312-40.818-69.614h-74.1
		l-40.507,68.922l38.851,66.105h24.479c4.142,0,7.499,3.356,7.5,7.498h15C372.473,229.448,375.83,226.092,379.972,226.092z"/>
	<path style="fill:#FFFFFF;" d="M156.671,84.973l39.678,67.514h77.302l39.679-67.514l-39.057-66.456
		C261.524,16.209,248.398,15,234.994,15c-13.399,0-26.521,1.208-39.265,3.514L156.671,84.973z"/>
	<path style="fill:#C1E8E6;" d="M66.378,226.092h78.13l38.851-66.105l-40.506-68.922H68.749
		c-17.6,20.302-31.542,43.854-40.816,69.613L66.378,226.092z M83.177,143.984c0.949-3.053,3.797-5.27,7.163-5.27
		c2.926,0,5.453,1.679,6.69,4.122c0.514,1.016,0.81,2.162,0.81,3.378c0,4.142-3.358,7.5-7.5,7.5c-4.142,0-7.5-3.358-7.5-7.5
		c0-0.518,0.052-1.023,0.152-1.512C83.042,144.459,83.104,144.22,83.177,143.984z"/>
	<path style="fill:#FFFFFF;" d="M173.816,341.055c-3.573-2.099-4.766-6.696-2.667-10.266l12.21-20.775l-40.506-68.922H66.378
		l-39.067,66.472c8.852,25.264,22.187,48.434,39.052,68.556h78.145l11.44-19.467c2.099-3.572,6.698-4.766,10.266-2.666
		c0.002,0.001,0.869-1.474,0.869-1.474L173.816,341.055z"/>
	<path style="fill:#C1E8E6;" d="M274.273,451.484l39.057-66.457l-39.679-67.514h-77.303l-12.269,20.875
		c-1.397,2.378-3.901,3.701-6.473,3.701c-1.292,0-2.599-0.333-3.792-1.035l-6.733,11.458l-0.867,1.475
		c3.57,2.1,4.762,6.694,2.664,10.265l-12.209,20.775l39.058,66.458c12.744,2.306,25.866,3.514,39.265,3.514
		C248.398,455,261.524,453.791,274.273,451.484z"/>
	<path style="fill:#185F8D;" d="M448.061,180.083l-31.448,53.509l31.935,54.339c4.205-16.96,6.452-34.686,6.452-52.928
		C455,216.047,452.59,197.644,448.061,180.083z"/>
	<path style="fill:#185F8D;" d="M327.148,391.119l-32.751,55.727c36.525-10.255,69.232-29.722,95.449-55.727H327.148z"/>
	<path style="fill:#185F8D;" d="M325.493,76.064h61.467c-25.715-24.596-57.368-43.028-92.563-52.91L325.493,76.064z"/>
	<polygon style="fill:#185F8D;" points="273.65,302.514 313.33,235 273.65,167.486 196.35,167.486 156.671,235 196.35,302.514 	"/>
	<path style="fill:#185F8D;" d="M142.853,391.119H80.151c26.218,26.007,58.927,45.476,95.455,55.729L142.853,391.119z"/>
	<path style="fill:#185F8D;" d="M144.508,76.064l31.097-52.913c-35.198,9.881-66.853,28.314-92.569,52.913H144.508z"/>
	<path style="fill:#185F8D;" d="M53.388,233.592l-31.449-53.51C17.41,197.644,15,216.047,15,235.003
		c0,18.242,2.247,35.967,6.452,52.928L53.388,233.592z"/>
	<path style="fill:#082947;" d="M401.167,68.83C356.78,24.444,297.766,0,234.994,0c-62.769,0-121.78,24.444-166.165,68.83
		C24.443,113.217,0,172.231,0,235.003c0,62.77,24.444,121.782,68.829,166.167C113.214,445.556,172.226,470,234.994,470
		c62.771,0,121.786-24.444,166.173-68.829C445.555,356.785,470,297.772,470,235.003C470,172.231,445.555,113.217,401.167,68.83z
		 M403.634,376.119h-78.142l-38.851-66.105l40.507-68.922h22.824c4.143,0,7.5-3.357,7.5-7.5c-0.001-4.144-3.358-7.5-7.5-7.5h-24.479
		l-38.851-66.105l40.507-68.922h74.1c17.601,20.302,31.544,43.854,40.818,69.614l-38.444,65.414h-23.651
		c-4.142,0-7.499,3.356-7.5,7.498c0,4.145,3.357,7.502,7.5,7.502h23.65l39.066,66.472
		C433.836,332.827,420.5,355.998,403.634,376.119z M196.35,167.486h77.301L313.33,235l-39.68,67.514H196.35L156.671,235
		L196.35,167.486z M68.749,91.064h74.104l40.506,68.922l-38.851,66.105h-78.13l-38.445-65.414
		C37.207,134.918,51.149,111.367,68.749,91.064z M416.613,233.592l31.448-53.509c4.529,17.561,6.939,35.964,6.939,54.92
		c0,18.242-2.247,35.967-6.452,52.928L416.613,233.592z M325.493,76.064l-31.096-52.91c35.195,9.881,66.848,28.313,92.563,52.91
		H325.493z M274.273,18.517l39.057,66.456l-39.679,67.514h-77.302l-39.678-67.514l39.058-66.458
		C208.474,16.208,221.595,15,234.994,15C248.398,15,261.524,16.209,274.273,18.517z M144.508,76.064H83.037
		c25.716-24.599,57.371-43.032,92.569-52.913L144.508,76.064z M21.939,180.082l31.449,53.51l-31.936,54.339
		C17.247,270.97,15,253.245,15,235.003C15,216.047,17.41,197.644,21.939,180.082z M142.853,391.119l32.753,55.729
		c-36.528-10.254-69.237-29.722-95.455-55.729H142.853z M195.729,451.486l-39.058-66.458l12.209-20.775
		c2.098-3.571,0.906-8.165-2.664-10.265c-3.569-2.101-8.169-0.907-10.268,2.665l-11.44,19.467H66.363
		c-16.866-20.122-30.2-43.292-39.052-68.556l39.067-66.472h76.475l40.506,68.922l-12.21,20.775
		c-2.099,3.57-0.905,8.167,2.666,10.266c1.194,0.702,2.501,1.035,3.793,1.035c2.571,0,5.075-1.323,6.473-3.701l12.269-20.875h77.303
		l39.679,67.514l-39.057,66.457c-12.749,2.307-25.875,3.516-39.279,3.516C221.595,455,208.474,453.792,195.729,451.486z
		 M327.148,391.119h62.698c-26.217,26.005-58.924,45.472-95.449,55.727L327.148,391.119z"/>
	<path style="fill:#082947;" d="M349.66,286.285c-2.071,0-3.946,0.839-5.303,2.196c-0.678,0.679-1.228,1.487-1.607,2.384
		c-0.224,0.529-0.38,1.093-0.478,1.676c-0.068,0.405-0.112,0.818-0.112,1.243c0,1.294,0.328,2.512,0.905,3.575
		c0.231,0.425,0.502,0.825,0.807,1.196c1.376,1.667,3.458,2.729,5.788,2.729c4.142,0,7.5-3.358,7.5-7.5
		C357.16,289.643,353.802,286.285,349.66,286.285z"/>
	<path style="fill:#082947;" d="M379.66,316.285c-1.21,0-2.35,0.293-3.362,0.802c-0.287,0.145-0.567,0.3-0.832,0.479
		c-0.599,0.404-1.136,0.893-1.594,1.448c-1.07,1.296-1.712,2.958-1.712,4.771c0,1.179,0.28,2.29,0.765,3.283
		c1.218,2.494,3.772,4.217,6.735,4.217c3.664,0,6.709-2.629,7.365-6.102c0.086-0.454,0.135-0.92,0.135-1.398
		C387.16,319.643,383.802,316.285,379.66,316.285z"/>
	<path style="fill:#082947;" d="M90.34,153.715c4.142,0,7.5-3.358,7.5-7.5c0-1.216-0.296-2.362-0.81-3.378
		c-1.236-2.443-3.764-4.122-6.69-4.122c-3.365,0-6.213,2.217-7.163,5.27c-0.073,0.235-0.135,0.475-0.185,0.719
		c-0.1,0.488-0.152,0.994-0.152,1.512C82.84,150.357,86.198,153.715,90.34,153.715z"/>
</g>
<g>
</g>
<g>
</g>
<g>
</g>
<g>
</g>
<g>
</g>
<g>
</g>
<g>
</g>
<g>
</g>
<g>
</g>
<g>
</g>
<g>
</g>
<g>
</g>
<g>
</g>
<g>
</g>
<g>
</g>
</svg>
