<?xml version="1.0" encoding="utf-8"?>
<!-- Generator: Adobe Illustrator 24.3.0, SVG Export Plug-In . SVG Version: 6.00 Build 0)  -->
<svg version="1.1" id="Layer_1" xmlns="http://www.w3.org/2000/svg" xmlns:xlink="http://www.w3.org/1999/xlink" x="0px" y="0px"
	 viewBox="0 0 80 80" enable-background="new 0 0 80 80" xml:space="preserve">
<polygon fill="#18CEF6" points="16.217,35.917 40.331,14.704 63.865,35.917 53.895,41.772 53.199,27.741 27.578,27.52 
	26.304,41.109 "/>
<g>
	<path fill="#18CEF6" d="M35.578,38.677c-1.024,0-1.854-0.791-1.855-1.766l0,0c0.002-0.977,0.832-1.768,1.855-1.768l0,0h8.811
		c1.024,0,1.854,0.791,1.855,1.768l0,0c-0.001,0.976-0.831,1.766-1.855,1.768l0,0L35.578,38.677L35.578,38.677z"/>
</g>
<path fill="#233251" d="M40.293,13L15,35.497v25.612h50.255V35.502L40.293,13z M63.169,57.795L49.547,45.423l13.622-7.743V57.795z
	 M54.561,28.599l7.933,7.15l-7.933,4.509V28.599z M40.283,15.729l11.456,10.326H28.673L40.283,15.729z M27.954,28.044h24.519
	l0.002,13.4l-12.149,6.905l-12.371-6.914V28.044z M25.868,28.55V40.27l-8.092-4.523L25.868,28.55z M17.085,37.665l13.722,7.67
	L17.085,57.796V37.665z M32.678,46.381l7.655,4.279l7.354-4.18l13.918,12.64H18.65L32.678,46.381z"/>
</svg>
