<?xml version="1.0" encoding="UTF-8"?>
<!DOCTYPE svg PUBLIC "-//W3C//DTD SVG 1.1//EN" "http://www.w3.org/Graphics/SVG/1.1/DTD/svg11.dtd">
<!-- Creator: CorelDRAW -->
<svg xmlns="http://www.w3.org/2000/svg" xml:space="preserve" width="2048px" height="2048px" style="shape-rendering:geometricPrecision; text-rendering:geometricPrecision; image-rendering:optimizeQuality; fill-rule:evenodd; clip-rule:evenodd"
viewBox="0 0 2048 2048"
 xmlns:xlink="http://www.w3.org/1999/xlink">
 <defs>
  <style type="text/css">
   <![CDATA[
    .fil2 {fill:none}
    .fil1 {fill:#00ACC1}
    .fil4 {fill:#263238}
    .fil0 {fill:#4DD0E1}
    .fil3 {fill:#FFAB00}
    .fil6 {fill:#263238;fill-rule:nonzero}
    .fil8 {fill:#424242;fill-rule:nonzero}
    .fil5 {fill:#64B5F6;fill-rule:nonzero}
    .fil7 {fill:#90CAF9;fill-rule:nonzero}
   ]]>
  </style>
   <clipPath id="id0">
    <path d="M1024 0c565.539,0 1024,458.461 1024,1024 0,565.539 -458.461,1024 -1024,1024 -565.539,0 -1024,-458.461 -1024,-1024 0,-565.539 458.461,-1024 1024,-1024z"/>
   </clipPath>
 </defs>
 <g id="Layer_x0020_1">
  <metadata id="CorelCorpID_0Corel-Layer"/>
  <path class="fil0" d="M1024 0c565.539,0 1024,458.461 1024,1024 0,565.539 -458.461,1024 -1024,1024 -565.539,0 -1024,-458.461 -1024,-1024 0,-565.539 458.461,-1024 1024,-1024z"/>
  <g style="clip-path:url(#id0)">
   <g id="_478235272">
    <g>
     <polygon id="_3905888881" class="fil1" points="1539.58,874.486 2675.46,2010.37 2677.23,2012.41 2678.94,2014.49 2680.61,2016.61 2682.22,2018.78 2683.79,2020.99 2685.3,2023.24 2686.76,2025.52 2688.16,2027.84 1552.28,891.956 1550.88,889.637 1549.42,887.353 1547.91,885.107 1546.34,882.898 1544.73,880.731 1543.06,878.605 1541.34,876.524 "/>
     <polygon id="_390601536" class="fil1" points="1552.28,891.956 2688.16,2027.84 2688.87,2029.08 2689.62,2030.51 2690.42,2032.11 2691.22,2033.84 2692.04,2035.7 2692.84,2037.66 2693.62,2039.69 2694.36,2041.77 2695.04,2043.9 2695.66,2046.03 2696.19,2048.15 2696.62,2050.24 2696.94,2052.28 2697.13,2054.24 2697.18,2056.11 2697.06,2057.86 1561.18,921.973 1561.29,920.225 1561.25,918.359 1561.06,916.397 1560.74,914.358 1560.31,912.268 1559.77,910.145 1559.16,908.013 1558.48,905.892 1557.74,903.805 1556.96,901.774 1556.16,899.819 1555.34,897.962 1554.53,896.226 1553.74,894.631 1552.99,893.201 "/>
     <polygon id="_390591264" class="fil1" points="1561.18,921.973 2697.06,2057.86 2697.87,2058.86 2698.36,2059.59 2698.62,2060.12 2698.72,2060.59 2698.73,2061.07 2698.71,2061.69 2698.75,2062.55 2698.92,2063.74 1563.04,927.859 1562.87,926.664 1562.83,925.809 1562.85,925.19 1562.84,924.703 1562.74,924.242 1562.48,923.703 1561.98,922.981 "/>
     <polygon id="_390593160" class="fil1" points="1563.04,927.859 2698.92,2063.74 2699.11,2065.14 2699.14,2065.99 2699.08,2066.47 2699,2066.77 2699,2067.07 2699.14,2067.54 2699.51,2068.38 2700.19,2069.75 1564.31,933.866 1563.63,932.494 1563.26,931.661 1563.12,931.187 1563.12,930.889 1563.2,930.589 1563.26,930.103 1563.23,929.254 "/>
     <polygon id="_390578640" class="fil1" points="1564.31,933.866 2700.19,2069.75 2700.52,2070.21 1564.64,934.324 "/>
     <polygon id="_390584400" class="fil1" points="1575.15,945.34 2711.04,2081.22 2712.66,2083.07 2714.2,2084.91 2715.61,2086.73 2716.85,2088.5 2717.87,2090.17 2718.63,2091.73 2719.08,2093.13 1583.2,957.252 1582.75,955.843 1581.99,954.288 1580.97,952.613 1579.73,950.851 1578.31,949.031 1576.78,947.183 "/>
     <polygon id="_390604608" class="fil1" points="1583.2,957.252 2719.08,2093.13 2719.42,2094.86 2719.66,2096.55 2719.82,2098.19 2719.88,2099.78 2719.85,2101.33 2719.73,2102.84 2719.52,2104.3 2719.21,2105.73 2718.81,2107.12 2718.31,2108.47 2717.71,2109.78 2717.01,2111.06 2716.22,2112.31 2715.32,2113.52 2714.32,2114.7 2713.22,2115.85 1577.34,979.965 1578.44,978.816 1579.44,977.636 1580.34,976.424 1581.13,975.179 1581.83,973.901 1582.43,972.587 1582.93,971.237 1583.33,969.848 1583.64,968.421 1583.85,966.954 1583.97,965.447 1584,963.896 1583.93,962.303 1583.78,960.666 1583.53,958.983 "/>
     <polygon id="_390589296" class="fil1" points="1577.34,979.965 2713.22,2115.85 2712.3,2116.76 2711.4,2117.64 2710.52,2118.51 2709.65,2119.37 2708.79,2120.22 2707.95,2121.05 2707.11,2121.89 2706.27,2122.72 2705.43,2123.55 2704.59,2124.38 2703.74,2125.23 2702.89,2126.08 2702.02,2126.94 2701.14,2127.82 2700.24,2128.72 2699.32,2129.64 1563.44,993.757 1564.36,992.837 1565.26,991.938 1566.14,991.058 1567.01,990.193 1567.86,989.343 1568.71,988.501 1569.55,987.666 1570.39,986.834 1571.23,986.004 1572.07,985.172 1572.91,984.334 1573.77,983.488 1574.64,982.632 1575.52,981.761 1576.42,980.873 "/>
     <polygon id="_390581808" class="fil1" points="1563.44,993.757 2699.32,2129.64 2697.47,2131.48 2695.62,2133.27 2693.79,2135.03 2691.97,2136.76 2690.16,2138.45 2688.36,2140.13 2686.56,2141.8 2684.76,2143.46 2682.96,2145.13 2681.16,2146.8 2679.35,2148.48 2677.54,2150.18 2675.72,2151.91 2673.88,2153.68 2672.03,2155.48 2670.17,2157.33 1534.29,1021.45 1536.15,1019.6 1538,1017.79 1539.84,1016.03 1541.66,1014.3 1543.47,1012.6 1545.28,1010.91 1547.08,1009.24 1548.88,1007.58 1550.68,1005.92 1552.48,1004.25 1554.28,1002.57 1556.09,1000.87 1557.91,999.148 1559.74,997.392 1561.58,995.597 "/>
     <polygon id="_390584352" class="fil1" points="1534.29,1021.45 2670.17,2157.33 2668.17,2159.35 2666.23,2161.29 2664.32,2163.15 2662.43,2164.88 2660.54,2166.47 2658.62,2167.89 2656.66,2169.11 2654.63,2170.11 2652.51,2170.87 2650.28,2171.36 2647.92,2171.55 2645.42,2171.41 2642.74,2170.94 2639.86,2170.09 2636.78,2168.84 2633.46,2167.17 1497.57,1031.29 1500.9,1032.96 1503.98,1034.2 1506.86,1035.06 1509.54,1035.53 1512.04,1035.66 1514.4,1035.47 1516.63,1034.99 1518.75,1034.23 1520.78,1033.23 1522.74,1032 1524.66,1030.58 1526.55,1029 1528.44,1027.26 1530.34,1025.41 1532.29,1023.46 "/>
     <polygon id="_390604248" class="fil1" points="1303.64,849.096 2439.52,1984.98 2438.85,1985.95 2438.47,1986.6 2438.26,1987 2438.08,1987.22 2437.8,1987.34 2437.31,1987.44 2436.46,1987.6 2435.14,1987.89 1299.26,852.012 1300.58,851.722 1301.42,851.562 1301.92,851.46 1302.2,851.336 1302.38,851.114 1302.59,850.718 1302.97,850.071 "/>
     <polygon id="_390577440" class="fil1" points="1292.93,890.29 2428.82,2026.17 2430.01,2027.51 2431.14,2028.9 2432.21,2030.36 2433.23,2031.88 2434.22,2033.46 2435.19,2035.1 2436.14,2036.8 2437.09,2038.55 2438.06,2040.37 1302.18,904.483 1301.21,902.67 1300.26,900.914 1299.31,899.215 1298.34,897.577 1297.35,895.997 1296.33,894.478 1295.26,893.02 1294.13,891.624 "/>
     <polygon id="_390574608" class="fil1" points="1404.21,1003.6 2540.09,2139.48 2540.8,2142.19 2541.47,2144.7 2542.09,2147.04 2542.68,2149.24 2543.22,2151.34 2543.72,2153.36 2544.19,2155.33 2544.63,2157.29 2545.03,2159.27 2545.41,2161.29 2545.76,2163.4 2546.09,2165.61 2546.4,2167.96 2546.68,2170.49 2546.95,2173.21 2547.21,2176.17 1411.33,1040.29 1411.07,1037.33 1410.8,1034.6 1410.51,1032.08 1410.21,1029.73 1409.88,1027.51 1409.53,1025.41 1409.15,1023.39 1408.75,1021.41 1408.31,1019.45 1407.84,1017.47 1407.34,1015.45 1406.8,1013.36 1406.21,1011.16 1405.59,1008.81 1404.92,1006.3 "/>
     <polygon id="_390576984" class="fil1" points="1419.2,1015.95 2555.08,2151.83 2553.9,2150.61 2552.63,2149.36 2551.25,2148.07 2549.74,2146.74 2548.11,2145.38 2546.34,2143.97 2544.42,2142.52 2542.34,2141.02 2540.09,2139.48 1404.21,1003.6 1406.46,1005.14 1408.54,1006.63 1410.46,1008.08 1412.23,1009.49 1413.86,1010.86 1415.36,1012.19 1416.75,1013.48 1418.02,1014.73 "/>
     <polygon id="_390584472" class="fil1" points="1411.33,1040.29 2547.21,2176.17 2547.24,2176.95 2547.22,2177.93 2547.16,2179.06 2547.06,2180.32 2546.92,2181.69 2546.76,2183.13 2546.57,2184.62 2546.37,2186.12 2546.16,2187.61 2545.93,2189.05 2545.7,2190.41 2545.48,2191.68 2545.26,2192.81 2545.06,2193.78 2544.87,2194.55 2544.7,2195.11 1408.82,1059.23 1408.99,1058.67 1409.18,1057.89 1409.38,1056.93 1409.6,1055.8 1409.82,1054.53 1410.05,1053.16 1410.27,1051.72 1410.49,1050.24 1410.69,1048.74 1410.88,1047.25 1411.04,1045.81 1411.18,1044.44 1411.28,1043.18 1411.34,1042.04 1411.36,1041.07 "/>
     <polygon id="_390584040" class="fil1" points="1408.82,1059.23 2544.7,2195.11 2544.45,2195.73 2544.12,2196.46 2543.7,2197.26 2543.21,2198.14 2542.67,2199.06 2542.08,2200.03 2541.46,2201.01 2540.82,2202.01 2540.16,2202.99 2539.5,2203.95 2538.85,2204.88 2538.21,2205.74 2537.61,2206.55 2537.06,2207.26 2536.55,2207.88 2536.11,2208.38 1400.23,1072.5 1400.67,1072 1401.17,1071.38 1401.73,1070.66 1402.33,1069.86 1402.96,1068.99 1403.61,1068.07 1404.28,1067.11 1404.93,1066.12 1405.58,1065.13 1406.2,1064.14 1406.79,1063.18 1407.33,1062.25 1407.82,1061.38 1408.24,1060.57 1408.57,1059.85 "/>
     <polygon id="_390580776" class="fil1" points="1400.23,1072.5 2536.11,2208.38 2535.97,2208.49 2535.57,2208.79 2534.93,2209.27 2534.06,2209.93 2532.98,2210.75 2531.69,2211.73 2530.22,2212.84 2528.58,2214.09 2526.79,2215.46 2524.85,2216.94 2522.79,2218.52 2520.61,2220.19 2518.34,2221.94 2515.99,2223.76 2513.57,2225.64 2511.09,2227.56 2508.58,2229.53 2506.04,2231.52 2503.5,2233.53 2500.96,2235.54 2498.44,2237.55 2495.96,2239.55 2493.53,2241.52 2491.16,2243.45 2488.87,2245.34 2486.67,2247.18 2484.58,2248.95 2482.62,2250.64 2480.79,2252.24 2479.12,2253.74 2477.62,2255.14 2476.29,2256.42 1340.41,1120.53 1341.73,1119.26 1343.24,1117.86 1344.91,1116.36 1346.74,1114.75 1348.7,1113.06 1350.79,1111.3 1352.99,1109.46 1355.27,1107.57 1357.64,1105.64 1360.08,1103.67 1362.56,1101.67 1365.08,1099.66 1367.62,1097.65 1370.16,1095.64 1372.7,1093.65 1375.21,1091.68 1377.68,1089.76 1380.11,1087.88 1382.46,1086.06 1384.73,1084.31 1386.91,1082.64 1388.97,1081.06 1390.91,1079.58 1392.7,1078.21 1394.34,1076.96 1395.81,1075.84 1397.1,1074.87 1398.18,1074.05 1399.05,1073.39 1399.69,1072.9 1400.09,1072.6 "/>
     <polygon id="_390576840" class="fil1" points="1340.41,1120.53 2476.29,2256.42 2444.98,2290.69 1309.1,1154.81 "/>
     <polygon id="_390600096" class="fil1" points="1058.77,1042.95 2194.65,2178.83 2192.81,2179.29 2190.95,2179.83 2189.05,2180.44 2187.14,2181.11 2185.21,2181.82 2183.27,2182.58 2181.32,2183.37 2179.37,2184.19 2177.43,2185.03 2175.49,2185.87 2173.56,2186.72 2171.65,2187.56 2169.76,2188.39 2167.89,2189.19 2166.05,2189.96 2164.25,2190.7 1028.37,1054.82 1030.17,1054.08 1032.01,1053.31 1033.88,1052.5 1035.77,1051.68 1037.68,1050.84 1039.61,1049.99 1041.55,1049.14 1043.49,1048.31 1045.44,1047.49 1047.39,1046.7 1049.33,1045.94 1051.26,1045.22 1053.17,1044.56 1055.06,1043.95 1056.93,1043.41 "/>
     <polygon id="_390580920" class="fil1" points="649.208,770.391 1785.09,1906.27 1787.17,1911.18 1789.24,1915.96 1791.3,1920.61 1793.36,1925.13 1795.43,1929.54 1797.51,1933.83 1799.61,1938.02 1801.73,1942.1 1803.89,1946.09 1806.08,1949.98 1808.32,1953.78 1810.61,1957.49 1812.96,1961.13 1815.37,1964.69 1817.86,1968.18 1820.42,1971.6 1823.06,1974.96 1825.8,1978.26 1828.63,1981.51 1831.57,1984.71 1834.61,1987.87 1837.77,1991 701.888,855.113 698.728,851.991 695.684,848.832 692.749,845.629 689.917,842.377 687.182,839.075 684.538,835.714 681.977,832.293 679.493,828.805 677.08,825.245 674.732,821.611 672.442,817.896 670.203,814.096 668.008,810.206 665.853,806.222 663.728,802.138 661.629,797.952 659.549,793.657 657.482,789.249 655.421,784.723 653.359,780.074 651.29,775.299 "/>
     <polygon id="_390584376" class="fil1" points="878.369,984.245 2014.25,2120.13 2015.02,2120.89 879.135,985.008 "/>
     <polygon id="_390577032" class="fil1" points="1028.37,1054.82 2164.25,2190.7 2159.87,2192.46 2155.8,2194.12 2152.02,2195.67 2148.51,2197.1 2145.27,2198.41 2142.28,2199.6 2139.52,2200.65 2136.98,2201.57 2134.66,2202.34 2132.53,2202.96 2130.58,2203.43 2128.79,2203.74 2127.16,2203.89 2125.66,2203.86 2124.3,2203.66 2123.04,2203.27 2121.88,2202.7 2120.8,2201.93 2119.79,2200.96 983.91,1065.08 984.918,1066.04 985.996,1066.81 987.157,1067.39 988.415,1067.77 989.783,1067.98 991.276,1068 992.909,1067.86 994.694,1067.55 996.646,1067.08 998.778,1066.46 1001.1,1065.68 1003.64,1064.77 1006.39,1063.72 1009.39,1062.53 1012.63,1061.22 1016.13,1059.78 1019.92,1058.24 1023.99,1056.58 "/>
     <polygon id="_390587472" class="fil1" points="879.135,985.008 2015.02,2120.89 2016.02,2121.9 2017.01,2122.89 2017.98,2123.85 2018.94,2124.8 2019.9,2125.74 2020.84,2126.66 884.958,990.781 884.014,989.854 883.062,988.919 882.101,987.969 881.128,987.003 880.139,986.018 "/>
     <polygon id="_390597744" class="fil1" points="790.982,1025.46 1926.86,2161.34 1925.17,2160.96 1923.44,2160.49 1921.66,2159.97 1919.85,2159.37 1918.01,2158.73 1916.15,2158.04 1914.28,2157.32 1912.4,2156.57 1910.52,2155.8 1908.65,2155.02 1906.79,2154.23 1904.95,2153.44 1903.14,2152.67 1901.37,2151.92 1899.63,2151.2 1897.94,2150.51 762.061,1014.63 763.749,1015.32 765.485,1016.04 767.261,1016.79 769.072,1017.56 770.91,1018.34 772.768,1019.13 774.64,1019.92 776.518,1020.69 778.397,1021.44 780.269,1022.16 782.127,1022.85 783.966,1023.49 785.777,1024.08 787.555,1024.61 789.292,1025.07 "/>
     <polygon id="_390590040" class="fil1" points="597.985,948.418 1733.87,2084.3 1732.27,2083.65 1730.63,2082.97 1728.95,2082.26 1727.24,2081.54 1725.51,2080.8 1723.75,2080.06 1721.98,2079.32 1720.21,2078.59 1718.43,2077.87 1716.65,2077.18 1714.89,2076.52 1713.13,2075.89 1711.4,2075.31 1709.7,2074.78 1708.02,2074.3 1706.38,2073.89 570.501,938.006 572.139,938.417 573.814,938.893 575.521,939.426 577.254,940.008 579.006,940.635 580.773,941.298 582.55,941.991 584.328,942.706 586.104,943.437 587.872,944.177 589.626,944.919 591.36,945.656 593.069,946.383 594.746,947.089 596.387,947.769 "/>
     <polygon id="_390576528" class="fil1" points="875.114,1257.21 2010.99,2393.1 2009.82,2393.04 2008.63,2392.98 2007.42,2392.91 2006.19,2392.83 2004.95,2392.75 2003.69,2392.66 2002.42,2392.56 2001.14,2392.46 1999.85,2392.35 1998.55,2392.24 1997.25,2392.12 1995.94,2392 1994.63,2391.87 1993.32,2391.74 1992,2391.6 1990.69,2391.47 1989.38,2391.33 1988.08,2391.18 1986.78,2391.04 1985.49,2390.89 1984.21,2390.75 1982.95,2390.6 1981.69,2390.45 1980.45,2390.3 1979.22,2390.15 1978.02,2390 1976.83,2389.85 1975.66,2389.71 1974.51,2389.56 1973.39,2389.42 1972.29,2389.28 1971.22,2389.14 835.34,1253.26 836.41,1253.4 837.509,1253.54 838.631,1253.68 839.777,1253.83 840.946,1253.97 842.135,1254.12 843.343,1254.27 844.568,1254.42 845.809,1254.57 847.065,1254.71 848.333,1254.86 849.612,1255.01 850.902,1255.16 852.199,1255.3 853.502,1255.44 854.81,1255.58 856.122,1255.72 857.435,1255.86 858.748,1255.99 860.061,1256.11 861.369,1256.24 862.673,1256.35 863.971,1256.47 865.261,1256.58 866.541,1256.68 867.812,1256.78 869.069,1256.87 870.312,1256.95 871.54,1257.03 872.75,1257.1 873.942,1257.16 "/>
     <polygon id="_390595224" class="fil1" points="702.565,1157.66 1838.45,2293.54 1838.56,2293.66 1838.68,2293.8 1838.8,2293.95 1838.91,2294.09 1839.02,2294.21 703.136,1158.32 703.032,1158.21 702.917,1158.07 702.798,1157.92 702.678,1157.78 "/>
     <polygon id="_379631216" class="fil1" points="681.212,1230.97 1817.09,2366.85 1814.69,2366.83 1812.42,2366.77 1810.28,2366.68 1808.24,2366.57 1806.3,2366.45 1804.42,2366.31 1802.61,2366.19 1800.83,2366.07 1799.08,2365.97 1797.34,2365.89 1795.59,2365.85 1793.81,2365.85 1791.99,2365.89 1790.11,2366 1788.16,2366.17 1786.12,2366.41 650.238,1230.53 652.28,1230.29 654.232,1230.12 656.109,1230.01 657.928,1229.96 659.704,1229.96 661.457,1230.01 663.2,1230.08 664.951,1230.19 666.726,1230.3 668.542,1230.43 670.415,1230.56 672.362,1230.69 674.398,1230.8 676.541,1230.89 678.807,1230.95 "/>
     <polygon id="_379628456" class="fil1" points="650.238,1230.53 1786.12,2366.41 1778.42,2367.55 1771.05,2368.81 1763.98,2370.2 1757.2,2371.69 1750.68,2373.29 1744.41,2374.97 1738.37,2376.73 1732.52,2378.55 1726.87,2380.43 1721.37,2382.36 1716.01,2384.31 1710.78,2386.29 1705.65,2388.28 1700.59,2390.27 1695.6,2392.25 1690.65,2394.2 1685.71,2396.13 1680.78,2398.01 1675.82,2399.83 1670.82,2401.59 1665.75,2403.27 1660.61,2404.86 1655.35,2406.35 1649.97,2407.73 1644.45,2408.99 1638.76,2410.12 1632.88,2411.1 1626.8,2411.93 1620.49,2412.6 1613.93,2413.09 1607.1,2413.39 1599.98,2413.49 464.102,1277.61 471.22,1277.51 478.048,1277.2 484.608,1276.72 490.92,1276.05 497.004,1275.22 502.88,1274.24 508.569,1273.11 514.093,1271.85 519.472,1270.47 524.724,1268.97 529.872,1267.38 534.938,1265.7 539.939,1263.95 544.897,1262.12 549.833,1260.25 554.768,1258.32 559.72,1256.37 564.713,1254.39 569.765,1252.4 574.897,1250.41 580.131,1248.43 585.486,1246.47 590.984,1244.55 596.643,1242.67 602.486,1240.85 608.532,1239.09 614.803,1237.41 621.318,1235.81 628.099,1234.31 635.165,1232.93 642.538,1231.66 "/>
     <polygon id="_379626680" class="fil1" points="835.34,1253.26 1971.22,2389.14 1966.79,2388.58 1962.28,2388.01 1957.68,2387.44 1953,2386.87 1948.26,2386.3 1943.46,2385.72 1938.59,2385.14 1933.68,2384.55 1928.72,2383.96 1923.73,2383.35 1918.7,2382.74 1913.65,2382.13 1908.58,2381.5 1903.5,2380.86 1898.41,2380.21 1893.33,2379.55 1888.25,2378.88 1883.18,2378.2 1878.13,2377.5 1873.1,2376.79 1868.11,2376.06 1863.16,2375.32 1858.25,2374.55 1853.39,2373.78 1848.58,2372.98 1843.85,2372.17 1839.18,2371.34 1834.58,2370.48 1830.07,2369.61 1825.65,2368.71 1821.32,2367.79 1817.09,2366.85 681.212,1230.97 685.439,1231.91 689.768,1232.83 694.19,1233.72 698.702,1234.6 703.296,1235.45 707.965,1236.29 712.704,1237.1 717.506,1237.9 722.366,1238.67 727.276,1239.43 732.23,1240.18 737.222,1240.9 742.247,1241.62 747.296,1242.32 752.364,1243 757.445,1243.67 762.533,1244.33 767.62,1244.98 772.703,1245.62 777.772,1246.24 782.822,1246.86 787.848,1247.47 792.843,1248.07 797.799,1248.67 802.712,1249.26 807.575,1249.84 812.379,1250.42 817.123,1250.99 821.796,1251.56 826.396,1252.13 830.912,1252.7 "/>
     <polygon id="_379637384" class="fil1" points="762.061,1014.63 1897.94,2150.51 1870.87,2139.69 734.992,1003.8 "/>
     <polygon id="_379629968" class="fil1" points="734.992,1003.8 1870.87,2139.69 1869.12,2138.98 1867.38,2138.28 1865.64,2137.59 1863.91,2136.89 1862.18,2136.19 1860.46,2135.49 1858.74,2134.8 1857.03,2134.1 1855.32,2133.41 1853.62,2132.72 1851.91,2132.02 1850.21,2131.33 1848.51,2130.64 1846.81,2129.94 1845.12,2129.25 1843.42,2128.56 1841.72,2127.87 1840.03,2127.17 1838.33,2126.48 1836.63,2125.79 1834.92,2125.09 1833.22,2124.4 1831.51,2123.7 1829.79,2123.01 1828.08,2122.31 1826.36,2121.61 1824.63,2120.91 1822.9,2120.22 1821.16,2119.51 1819.42,2118.81 1817.66,2118.11 1815.9,2117.41 680.024,981.524 681.784,982.228 683.535,982.931 685.28,983.632 687.017,984.333 688.75,985.031 690.477,985.73 692.197,986.427 693.914,987.124 695.626,987.819 697.335,988.514 699.041,989.208 700.744,989.903 702.445,990.596 704.144,991.289 705.841,991.983 707.539,992.676 709.236,993.368 710.933,994.061 712.63,994.754 714.33,995.447 716.031,996.14 717.734,996.833 719.44,997.528 721.149,998.221 722.861,998.917 724.577,999.613 726.299,1000.31 728.026,1001.01 729.758,1001.7 731.496,1002.4 733.241,1003.1 "/>
     <polygon id="_379649144" class="fil1" points="680.024,981.524 1815.9,2117.41 1733.87,2084.3 597.985,948.418 "/>
     <polygon id="_379637720" class="fil1" points="1035.27,1248.28 2171.16,2384.16 2168.26,2386.18 2165.14,2388.01 2161.81,2389.68 2158.28,2391.18 2154.57,2392.53 2150.68,2393.72 2146.64,2394.78 2142.45,2395.69 2138.12,2396.48 2133.68,2397.15 2129.13,2397.7 2124.48,2398.14 2119.75,2398.48 2114.95,2398.73 2110.1,2398.88 2105.2,2398.96 2100.27,2398.96 2095.32,2398.89 2090.37,2398.77 2085.42,2398.58 2080.5,2398.35 2075.6,2398.08 2070.76,2397.78 2065.97,2397.45 2061.25,2397.1 2056.62,2396.73 2052.09,2396.36 2047.66,2395.99 2043.36,2395.62 2039.19,2395.27 2035.17,2394.94 2031.31,2394.64 895.433,1258.76 899.291,1259.06 903.31,1259.39 907.477,1259.74 911.78,1260.11 916.205,1260.48 920.741,1260.85 925.373,1261.21 930.089,1261.57 934.877,1261.9 939.724,1262.2 944.617,1262.47 949.542,1262.7 954.487,1262.88 959.441,1263.01 964.389,1263.08 969.318,1263.08 974.218,1263 979.072,1262.85 983.871,1262.6 988.6,1262.26 993.246,1261.82 997.798,1261.27 1002.24,1260.6 1006.57,1259.81 1010.76,1258.89 1014.8,1257.84 1018.68,1256.64 1022.4,1255.3 1025.93,1253.79 1029.26,1252.13 1032.38,1250.29 "/>
     <polygon id="_379632704" class="fil1" points="895.433,1258.76 2031.31,2394.64 2029.86,2394.53 2028.46,2394.41 2027.1,2394.3 2025.77,2394.19 2024.48,2394.08 2023.22,2393.97 2021.98,2393.86 2020.75,2393.75 2019.54,2393.65 2018.33,2393.56 2017.13,2393.46 2015.93,2393.38 2014.72,2393.3 2013.5,2393.22 2012.26,2393.16 2010.99,2393.1 875.114,1257.21 876.375,1257.27 877.614,1257.34 878.837,1257.41 880.047,1257.49 881.251,1257.58 882.453,1257.67 883.657,1257.77 884.87,1257.87 886.094,1257.98 887.336,1258.08 888.601,1258.19 889.893,1258.3 891.218,1258.42 892.579,1258.53 893.983,1258.64 "/>
     <polygon id="_379636256" class="fil1" points="885.897,991.702 2021.78,2127.58 2022.71,2128.5 2023.65,2129.42 2024.58,2130.34 2025.52,2131.27 2026.47,2132.22 2027.42,2133.17 2028.38,2134.15 2029.36,2135.15 2030.35,2136.17 894.466,1000.29 893.476,999.263 892.502,998.266 891.539,997.291 890.586,996.334 889.641,995.392 888.702,994.461 887.767,993.538 886.833,992.619 "/>
     <polygon id="_379632104" class="fil1" points="894.466,1000.29 2030.35,2136.17 2031.52,2137.43 2032.48,2138.56 2033.3,2139.6 2034.04,2140.59 2034.77,2141.57 2035.56,2142.6 2036.48,2143.71 2037.59,2144.96 901.705,1009.08 900.596,1007.83 899.679,1006.72 898.888,1005.69 898.156,1004.7 897.414,1003.71 896.597,1002.68 895.637,1001.55 "/>
     <polygon id="_379638584" class="fil1" points="901.705,1009.08 2037.59,2144.96 2038.67,2146.13 2039.84,2147.37 2041.07,2148.68 2042.36,2150.05 2043.72,2151.48 2045.13,2152.95 2046.59,2154.48 2048.09,2156.04 2049.63,2157.65 2051.2,2159.28 2052.8,2160.95 2054.42,2162.63 2056.06,2164.34 2057.71,2166.05 2059.36,2167.78 2061.02,2169.51 2062.67,2171.24 2064.32,2172.97 2065.95,2174.68 2067.56,2176.38 2069.15,2178.06 2070.7,2179.71 2072.22,2181.34 2073.7,2182.93 2075.13,2184.48 2076.52,2185.98 2077.85,2187.44 2079.11,2188.85 2080.31,2190.19 2081.43,2191.48 2082.48,2192.69 2083.45,2193.84 947.57,1057.95 946.603,1056.81 945.553,1055.59 944.428,1054.31 943.229,1052.97 941.964,1051.56 940.637,1050.1 939.253,1048.6 937.82,1047.04 936.34,1045.45 934.82,1043.83 933.264,1042.18 931.678,1040.5 930.067,1038.8 928.437,1037.09 926.792,1035.36 925.138,1033.63 923.48,1031.9 921.824,1030.17 920.174,1028.45 918.536,1026.75 916.914,1025.06 915.315,1023.4 913.744,1021.76 912.205,1020.16 910.705,1018.59 909.248,1017.07 907.838,1015.59 906.484,1014.17 905.187,1012.8 903.955,1011.49 902.793,1010.25 "/>
     <polygon id="_379629992" class="fil1" points="947.57,1057.95 2083.45,2193.84 2084.16,2194.68 2084.97,2195.61 2085.88,2196.65 2086.87,2197.76 2087.94,2198.95 2089.08,2200.22 2090.28,2201.54 2091.54,2202.92 2092.85,2204.35 2094.2,2205.83 2095.58,2207.33 2096.98,2208.87 2098.41,2210.42 2099.84,2211.99 2101.28,2213.56 2102.71,2215.13 2104.13,2216.7 2105.53,2218.24 2106.9,2219.77 2108.24,2221.26 2109.54,2222.72 2110.79,2224.13 2111.97,2225.49 2113.1,2226.79 2114.15,2228.02 2115.12,2229.18 2116.01,2230.27 2116.8,2231.26 2117.49,2232.16 2118.07,2232.96 2118.53,2233.64 2118.86,2234.22 982.98,1098.33 982.645,1097.76 982.184,1097.07 981.607,1096.28 980.918,1095.38 980.128,1094.38 979.243,1093.3 978.27,1092.14 977.218,1090.91 976.093,1089.6 974.904,1088.24 973.658,1086.83 972.361,1085.38 971.022,1083.88 969.649,1082.36 968.248,1080.81 966.828,1079.25 965.396,1077.68 963.959,1076.11 962.525,1074.54 961.1,1072.99 959.695,1071.45 958.315,1069.94 956.968,1068.47 955.661,1067.04 954.402,1065.66 953.2,1064.33 952.059,1063.07 950.99,1061.88 949.999,1060.76 949.093,1059.73 948.281,1058.79 "/>
     <polygon id="_379635368" class="fil1" points="1132.64,1169.28 2268.52,2305.16 2263.36,2308.28 2258.48,2311.32 2253.85,2314.3 2249.47,2317.2 2245.32,2320.03 2241.4,2322.81 2237.67,2325.52 2234.14,2328.18 2230.78,2330.79 2227.59,2333.35 2224.55,2335.86 2221.64,2338.34 2218.86,2340.77 2216.18,2343.17 2213.6,2345.54 2211.11,2347.87 2208.68,2350.19 2206.3,2352.48 2203.97,2354.75 2201.66,2357.01 2199.37,2359.26 2197.08,2361.49 2194.77,2363.73 2192.44,2365.96 2190.07,2368.19 2187.64,2370.43 2185.14,2372.68 2182.56,2374.94 2179.89,2377.21 2177.1,2379.51 2174.2,2381.82 2171.16,2384.16 1035.27,1248.28 1038.32,1245.94 1041.22,1243.63 1044.01,1241.33 1046.68,1239.06 1049.26,1236.8 1051.76,1234.55 1054.19,1232.31 1056.56,1230.08 1058.89,1227.85 1061.2,1225.61 1063.49,1223.37 1065.78,1221.13 1068.09,1218.87 1070.42,1216.6 1072.8,1214.3 1075.23,1211.99 1077.72,1209.65 1080.3,1207.29 1082.97,1204.89 1085.76,1202.45 1088.66,1199.98 1091.71,1197.47 1094.9,1194.91 1098.26,1192.3 1101.79,1189.64 1105.51,1186.92 1109.44,1184.15 1113.59,1181.31 1117.97,1178.41 1122.59,1175.44 1127.48,1172.4 "/>
     <polygon id="_379651304" class="fil1" points="1219.1,1121.65 2354.98,2257.54 2268.52,2305.16 1132.64,1169.28 "/>
     <polygon id="_379652864" class="fil1" points="1202.85,1260.34 2338.73,2396.22 2336.87,2395.54 2335.05,2394.78 2333.29,2393.94 2331.57,2393.02 2329.9,2392.03 2328.28,2390.97 2326.72,2389.85 2325.21,2388.66 2323.76,2387.42 2322.36,2386.12 1186.48,1250.24 1187.87,1251.53 1189.33,1252.78 1190.84,1253.97 1192.4,1255.09 1194.02,1256.15 1195.69,1257.14 1197.4,1258.06 1199.17,1258.9 1200.99,1259.66 "/>
     <polygon id="_379626920" class="fil1" points="1309.1,1154.81 2444.98,2290.69 2443.61,2292.17 2442.16,2293.8 2440.63,2295.58 2439.03,2297.49 2437.36,2299.54 2435.63,2301.7 2433.86,2303.97 2432.03,2306.34 2430.17,2308.8 2428.27,2311.33 2426.35,2313.93 2424.4,2316.59 2422.44,2319.3 2420.48,2322.04 2418.51,2324.82 2416.55,2327.6 2414.59,2330.4 2412.66,2333.2 2410.75,2335.98 2408.87,2338.73 2407.02,2341.46 2405.22,2344.14 2403.47,2346.77 2401.77,2349.34 2400.14,2351.83 2398.57,2354.24 2397.08,2356.56 2395.67,2358.77 2394.34,2360.87 2393.11,2362.85 2391.98,2364.69 2390.96,2366.39 1255.08,1230.51 1256.1,1228.81 1257.23,1226.97 1258.46,1224.99 1259.79,1222.89 1261.2,1220.67 1262.69,1218.36 1264.26,1215.95 1265.89,1213.45 1267.59,1210.89 1269.34,1208.26 1271.14,1205.58 1272.99,1202.85 1274.87,1200.09 1276.78,1197.31 1278.71,1194.52 1280.67,1191.72 1282.63,1188.93 1284.6,1186.16 1286.56,1183.42 1288.52,1180.71 1290.47,1178.05 1292.39,1175.45 1294.29,1172.92 1296.15,1170.46 1297.97,1168.09 1299.75,1165.82 1301.48,1163.66 1303.15,1161.61 1304.75,1159.69 1306.28,1157.92 1307.73,1156.28 "/>
     <polygon id="_379647272" class="fil1" points="1255.08,1230.51 2390.96,2366.39 2389.88,2368.21 2388.82,2370.02 2387.75,2371.84 2386.68,2373.65 2385.61,2375.44 2384.53,2377.21 2383.43,2378.96 2382.31,2380.67 2381.17,2382.35 2380.01,2383.98 2378.81,2385.56 2377.58,2387.08 2376.3,2388.54 2374.98,2389.93 2373.61,2391.24 2372.19,2392.48 2370.71,2393.62 2369.17,2394.68 2367.57,2395.63 2365.89,2396.48 2364.14,2397.22 2362.31,2397.84 2360.4,2398.33 2358.4,2398.7 2356.3,2398.93 2354.12,2399.01 2351.83,2398.96 2349.43,2398.74 2346.93,2398.37 2344.32,2397.83 2341.58,2397.11 2338.73,2396.22 1202.85,1260.34 1205.7,1261.23 1208.44,1261.94 1211.05,1262.48 1213.55,1262.86 1215.95,1263.07 1218.23,1263.13 1220.42,1263.04 1222.52,1262.82 1224.52,1262.45 1226.43,1261.95 1228.26,1261.33 1230.01,1260.6 1231.69,1259.75 1233.29,1258.8 1234.83,1257.74 1236.31,1256.6 1237.73,1255.36 1239.1,1254.05 1240.42,1252.66 1241.69,1251.2 1242.93,1249.67 1244.13,1248.1 1245.29,1246.46 1246.43,1244.79 1247.55,1243.08 1248.65,1241.33 1249.73,1239.56 1250.8,1237.76 1251.87,1235.96 1252.93,1234.14 1254,1232.32 "/>
     <polygon id="_379646720" class="fil1" points="1442.14,1038.53 2578.02,2174.42 2576.34,2173.51 2574.78,2172.6 2573.35,2171.7 2572.04,2170.8 2570.82,2169.9 2569.7,2169.01 2568.66,2168.1 2567.7,2167.2 2566.8,2166.28 1430.91,1030.4 1431.82,1031.31 1432.78,1032.22 1433.82,1033.12 1434.94,1034.02 1436.16,1034.92 1437.47,1035.82 1438.9,1036.72 1440.46,1037.62 "/>
     <polygon id="_379630112" class="fil1" points="1497.57,1031.29 2633.46,2167.17 2632.57,2168.32 2631.56,2169.41 2630.45,2170.45 2629.24,2171.44 2627.93,2172.38 2626.54,2173.25 2625.05,2174.08 2623.49,2174.84 2621.86,2175.55 2620.16,2176.21 2618.4,2176.8 2616.59,2177.33 2614.73,2177.81 2612.82,2178.22 2610.88,2178.57 2608.91,2178.86 2606.92,2179.09 2604.9,2179.25 2602.87,2179.35 2600.84,2179.38 2598.8,2179.34 2596.77,2179.24 2594.75,2179.08 2592.74,2178.84 2590.76,2178.54 2588.81,2178.16 2586.89,2177.72 2585.01,2177.2 2583.18,2176.62 2581.4,2175.96 2579.68,2175.22 2578.02,2174.42 1442.14,1038.53 1443.8,1039.34 1445.52,1040.07 1447.3,1040.73 1449.13,1041.32 1451.01,1041.84 1452.93,1042.28 1454.88,1042.65 1456.86,1042.96 1458.87,1043.2 1460.89,1043.36 1462.92,1043.46 1464.96,1043.5 1466.99,1043.46 1469.02,1043.37 1471.03,1043.2 1473.03,1042.98 1475,1042.69 1476.94,1042.34 1478.85,1041.92 1480.71,1041.45 1482.52,1040.92 1484.28,1040.32 1485.98,1039.67 1487.61,1038.96 1489.17,1038.2 1490.65,1037.37 1492.05,1036.49 1493.36,1035.56 1494.57,1034.57 1495.68,1033.53 1496.68,1032.43 "/>
    </g>
    <path id="_478232464" class="fil1" d="M1482.57 843.614c31.2922,4.24843 54.9898,23.4225 69.717,48.3426 3.60945,6.10749 9.9378,21.0496 8.90079,30.0166 2.60669,3.16654 1.18819,2.15197 1.85197,5.88662 0.820867,4.60866 -1.01221,1.46811 1.27323,6.00709 0.830316,1.64882 17.3752,16.3228 18.8929,23.3858 2.01142,9.35316 0.282284,16.6642 -5.86063,22.7126 -4.97717,4.90158 -8.93032,8.82048 -13.9004,13.7917 -9.94843,9.94725 -19.1634,17.6882 -29.1508,27.6921 -10.8685,10.8862 -18.3402,19.9169 -36.7158,9.83859 -8.85709,12.5079 -38.1154,16.2508 -55.4315,7.24607 -18.7382,-9.74292 -12.9886,-18.2327 -37.937,-34.9382 3.94488,15.0402 5.78859,20.2299 7.12441,36.6969 0.291733,3.59646 -1.69488,16.6158 -2.50748,18.9331 -1.06772,3.0437 -6.43583,10.9276 -8.59135,13.2721 -0.0578741,0.0637796 -46.7221,35.0847 -59.8205,48.0355l-31.3099 34.2792c-14.1343,14.8311 -43.6855,58.3642 -54.0237,75.6969 -11.5181,19.3099 -21.1134,40.3111 -52.2296,29.8299 -10.0394,-3.38268 -18.2055,-10.4929 -23.4272,-18.841 -16.663,-26.6398 -1.99606,-45.4418 8.99646,-64.5331 4.12914,-7.17284 29.713,-51.1441 30.6827,-55.3099l-86.4638 47.6268c-56.5087,33.6744 -64.1315,53.8831 -97.3607,79.0005 -29.674,22.428 -99.5954,13.5354 -139.841,10.4752 -7.87087,-0.598819 -13.5272,-1.25079 -20.3197,-1.54252 -12.3803,-0.532678 -28.5036,-2.5004 -39.7737,-3.95315 -46.7445,-6.02245 -109.599,-12.1217 -154.128,-22.2933 -13.2284,0 -19.8095,-1.9441 -30.9744,-0.437008 -83.9469,11.341 -108.594,47.0776 -186.136,47.0776 17.5051,-26.9799 26.9693,-37.617 14.1721,-69.5575 -5.07048,-12.6579 -9.07205,-20.7697 -12.1193,-35.9788 -2.84764,-14.211 -2.05276,-28.226 -2.05276,-44.5878 53.1993,17.0008 59.602,15.9579 120.976,16.0335 36.8221,0.0448819 78.9272,-3.64016 113.524,11.8134l3.70985 2.28898c0.138189,-0.26811 0.56693,0.448819 0.82441,0.702756 14.5736,-0.895276 58.6548,4.06181 74.2808,4.19528 9.95198,0.0850394 15.3555,1.24016 23.3303,1.44685 27.0851,0.703938 75.9284,5.78741 97.6973,5.78741 -12.8788,-16.7032 -104.4,-135.978 -107.461,-144.295 -8.87599,-1.83071 -20.0563,-7.28032 -28.9217,-10.826l-27.0685 -10.8284c-18.7252,-7.48347 -36.1607,-14.7638 -54.9685,-22.2792l-82.0383 -33.1063c-8.40119,-3.35788 -18.8575,-8.40237 -27.4843,-10.4114 0,-8.10473 22.0488,-28.4055 26.8075,-37.324 5.23819,-15.8823 7.04882,-32.9977 10.2413,-50.9741 1.9748,-11.113 5.52874,-26.4532 10.0784,-36.5634 1.70906,-3.79843 2.54292,-6.57993 4.35709,-10.2177 3.34134,-6.69686 7.65355,-12.8504 12.1843,-18.424 4.34764,-5.34804 7.99134,-12.2303 15.0378,-14.1118 22.3087,53.0622 41.2028,82.8461 92.1072,114.861 65.1119,40.9512 65.5571,34.2638 117.52,82.1764l1.57795 1.45039 1.59331 1.50118c3.73701,1.98898 13.3973,10.8614 17.1295,14.628 5.40355,5.45315 10.011,9.75119 15.3307,15.2776 3.45945,3.5941 3.96614,5.25473 7.23898,8.79213 11.1874,12.0945 36.0118,37.0878 45.8646,48.8752 7.02638,8.40473 32.5252,34.9276 35.4107,40.3807 21.3201,-16.9465 33.0792,-26.8134 56.5477,-42.5646 4.81772,-3.23268 16.6228,-9.2445 19.2437,-12.8209 -9.72284,2.26417 -20.8902,8.07048 -30.3992,11.8677 -48.4004,19.3288 -42.3142,21.8587 -57.5835,-22.9973 -8.00079,-23.5051 -16.9725,-32.9126 2.7874,-40.5437l90.815 -35.9894c9.82914,-3.9567 19.9677,-7.69253 30.4004,-11.8677 28.3016,-11.328 63.8067,-26.0717 90.9556,-35.85l60.6154 -23.9197c12.1122,-4.83544 22.4492,-6.06969 35.2713,-0.889371 11.1331,4.49882 15.3461,11.8996 20.5441,21.724 12.9992,-1.55079 51.5752,-6.63662 62.6056,-5.76497 6.47481,0.511418 12.5528,2.71181 19.4209,2.85 1.29213,-12.8882 17.0457,-27.8351 18.7217,-30.4299 1.94646,-3.01536 2.4874,-7.28741 7.91575,-12.4902 12.2362,-11.7284 56.0245,-17.1662 71.7237,-15.0343zm-178.93 5.48268c-2.27244,3.10276 -0.111024,1.89567 -4.37244,2.91614l0 -2.91614 4.37244 0z"/>
   </g>
  </g>
  <path class="fil2" d="M1024 0c565.539,0 1024,458.461 1024,1024 0,565.539 -458.461,1024 -1024,1024 -565.539,0 -1024,-458.461 -1024,-1024 0,-565.539 458.461,-1024 1024,-1024z"/>
  <g id="_470777192">
   <path id="_470784416" class="fil3" d="M703.797 1158.58c-76.8508,-33.5103 -157.028,4.71615 -239.105,-30.6945 -7.47284,87.2883 49.0335,85.4575 0.38504,149.268 69.9414,4.2 141.415,-57.0508 209.686,-46.5213l4.10197 -0.800788c-6.60237,-11.4461 -10.7268,-25.7327 -6.81969,-39.9225 5.12008,-18.5988 21.9484,-27.5776 31.7516,-31.3288z"/>
   <path id="_470791784" class="fil4" d="M788.747 1022.44l0.115748 0.0354331 4.5 5.88544 0.257481 0.337796c9.70749,12.6992 19.1032,25.6642 28.5154,38.5843 14.8595,20.3988 29.7248,40.8485 45.2811,60.7241l33.3024 42.5481 -194.646 -11.8252 -3.62008 -0.219685 -4.33229 -0.823229c-9.80434,3.75 -26.6303,12.7287 -31.7528,31.3288 -3.90709,14.1898 0.217323,28.4764 6.81969,39.9225l0.797245 -0.155906 4.88032 1.05c7.35119,1.5815 14.8299,3.01299 22.3583,4.34174 15.1299,2.66811 30.4689,4.91811 45.4158,7.1256 35.8973,5.30079 71.9788,9.84213 108.086,13.4339 46.076,4.5815 96.1702,8.66575 142.41,6.18426 23.5996,-1.26732 39.5516,-12.1536 55.2945,-28.5709 0.786615,-0.820867 1.57087,-1.65591 2.38583,-2.44725 0.0496063,-0.0484252 0.0791339,-0.0767717 0.0944883,-0.090945 23.1225,-23.7248 49.0961,-43.9961 77.465,-61.0749 5.0126,-3.01772 10.0866,-5.9315 15.2173,-8.74371l75.28 -41.2559 -43.9382 77.2347c-9.32245,16.3878 -7.76457,33.8362 3.90237,48.5398 3.63662,4.58504 8.13662,8.57717 13.1528,11.5973 4.82953,2.9067 10.2461,4.99489 15.8362,5.81339 15.8114,2.31496 27.3307,-4.91693 35.1296,-18.665 18.4028,-32.4425 39.5481,-63.3178 64.03,-91.4906 24.3579,-28.0276 50.6953,-54.0567 82.0383,-74.2725 0.307087,-0.198425 0.618898,-0.388583 0.927166,-0.583465 3.12874,-2.20512 5.8878,-4.90512 8.30197,-7.86615 2.42362,-2.9752 4.44803,-6.60591 6.2941,-9.96142 0.106299,-0.19252 0.229134,-0.413386 0.327166,-0.623623 2.30315,-9.28938 2.06103,-20.387 0.859843,-29.7886 -2.07638,-16.2496 -7.77757,-33.3603 -16.6311,-47.2311 -8.95867,-14.0386 -21.3555,-25.4516 -37.8177,-29.6599 -6.89646,-1.76339 -14.4425,-1.77402 -21.4949,-1.19291 -0.218504,0.0177165 -0.444095,0.0330709 -0.664961,0.0578741 -62.5843,12.0366 -125.104,27.5044 -184.53,50.7898 -52.8284,20.7 -102.811,47.5996 -147.05,83.3741l-17.7024 14.315 -15.4547 -16.7173c-8.33623,-9.0189 -16.5886,-18.1205 -24.8469,-27.2103 -6.65552,-7.3252 -13.311,-14.6492 -19.9961,-21.9473 -11.6646,-12.7347 -23.4142,-25.441 -35.4886,-37.7894 -5.30788,-5.42717 -11.0315,-11.3055 -16.9158,-16.7126 -3.04725,-2.79921 -6.13819,-5.47087 -9.23623,-7.88741l-2.74607 -2.14252 -1.10787 -1.53898c-9.28111,-4.17638 -21.8126,-7.1315 -34.8154,-2.25 -24.8386,9.32835 -34.6063,39.9603 -34.4599,55.467 0.0011811,0.188977 -0.0106299,0.976772 -0.0295276,2.04803z"/>
   <path id="_470796944" class="fil3" d="M648.67 770.639c-61.9713,53.5146 -26.0091,138.155 -77.4957,165.9l219.938 88.8768c0.0188977,-1.07126 0.0307087,-1.85906 0.0295276,-2.04685 -0.146457,-15.5067 9.62127,-46.1398 34.4599,-55.467 13.0016,-4.88268 25.5343,-1.92756 34.8154,2.25l-0.927166 -1.28858c-89.6032,-87.9272 -161.763,-70.0146 -210.82,-198.225z"/>
   <path id="_470786864" class="fil5" d="M1378.38 923.884c-13.3713,-7.1693 -60.3213,0.594095 -74.9953,4.89331 -1.29803,8.4319 -4.33111,19.3382 -12.8669,22.9831 -0.257481,0.109843 -0.518504,0.210236 -0.780709,0.298819l0.00236221 0.00472441c-18.5114,6.26339 -55.1634,19.9654 -89.8465,32.9315 -28.4516,10.6358 -190.273,76.8993 -204.102,81.769 -5.75906,2.03032 -12.0744,-0.992127 -14.1059,-6.75001l-18.4571 -52.2957c-2.09882,-5.94804 1.18228,-12.3992 7.19764,-14.2524l282.084 -111.351 -0.00826772 -0.0212599c20.3788,-7.20119 42.489,3.63898 49.5993,24.0449 9.00119,-2.22284 53.5996,-7.98544 62.778,-6.68504 11.2051,1.53307 22.3973,2.72126 35.0339,12.0083l-0.553937 0.249213 -2.49803 0 -0.748819 0.250394 -0.499607 0.249213 -0.748819 0 -0.499607 0.250394 -0.499607 0 -0.250394 0.249213 -1.49764 0 -0.750001 0.250394 -0.748819 0.249213 -0.499607 0.250394 -0.499607 0.249213 -0.499607 0.249213 -0.748819 0 -0.748819 0.499607 -0.499607 0 0 0.250394 -0.250394 0 0 0.249213 -0.249213 0 0 0.250394 -0.499607 0 0 0.249213 -0.250394 0 0 0.250394 -0.499607 0.249213 -0.499607 0.250394 -0.249213 0.498426 -0.499607 0 -0.499607 0.250394 -0.249213 0.499607 -0.250394 0 0 0.249213 -0.498426 0 0 0.499607 -0.500788 0 -0.249213 0.499607 -0.249213 0.499607 -0.250394 0 0 0.249213 -0.249213 0 0 0.750001 -0.250394 0 0 0.249213 -0.499607 0.250394 0 0.499607 -0.249213 0 0 0.249213 -0.249213 0 0 0.499607 -0.250394 0 0 0.249213 -0.250394 0 -0.249213 0.499607 0 0.499607 -0.499607 0 0 0.499607 -0.249213 0 0 0.184252z"/>
   <path id="_470779448" class="fil6" d="M1406.12 869.45l-1.32284 -0.863386 0.459449 -0.934253 0.475985 0 0 -0.474804 0.474804 0 0 -0.950788 0.474804 0 0 -0.474804 0.474804 0 0 -0.949607 0.950788 -0.474804 0 -0.475985 0.475985 0 0 -1.42559 0.474804 0 0 -0.474804 0.949607 -0.474804 0.474804 -0.950788 0 -0.474804 0.950788 0 0 -0.949607 0.949607 0 0 -0.474804 0.949607 -0.474804 0 -0.475985 0.950788 -0.474804 0.950788 0 0.474804 -0.950788 0.949607 -0.474804 0.950788 -0.474804 0 -0.475985 0.474804 0 0 -0.474804 0.949607 0 0 -0.474804 0.474804 0 0 -0.474804 0.475985 0 0 -0.474804 0.950788 0 1.42441 -0.950788 1.42559 0 0.949607 -0.474804 0.950788 -0.474804 0.949607 -0.475985 1.42559 -0.474804 1.42559 -0.474804 2.85 0 0.474804 -0.475985 1.42559 0 0.950788 -0.474804 1.42559 0 1.42441 -0.474804 0.949607 -0.474804 4.27677 0 1.9004 -0.474804 0.814961 -0.4063 0.126378 0.102756 1.43386 -0.17126 1.42559 0 0.474804 -0.475985 2.85 0 0 -0.837402c55.9241,-11.3965 109.36,31.4492 110.821,88.4493l15.0177 15.6024c8.04449,8.36457 7.78819,21.6673 -0.576378,29.713l-51.737 49.7292c-7.55906,7.27087 -19.1551,7.75867 -27.254,1.61102 -17.3906,15.8114 -44.113,16.7102 -62.7626,2.41063 -5.86654,-4.49764 -10.8154,-10.3701 -14.2512,-17.5524 -40.4103,-24.8516 -55.5556,-76.917 -34.6288,-119.53 4.85315,-9.88465 11.1768,-18.8268 19.2012,-26.4189z"/>
   <path id="_470774936" class="fil7" d="M1563.11 933.885l15.0177 15.6024c8.04449,8.36457 7.78819,21.6673 -0.576378,29.713l-51.737 49.7292c-7.55906,7.27087 -19.1551,7.75867 -27.254,1.61102l-0.212599 0.187795c-8.88308,-5.50748 -15.7476,-12.3189 -17.3126,-20.9374 -2.12244,-11.6717 14.2819,-30.4276 29.4414,-43.6252 19.1941,-16.7114 39.5504,-27.1654 52.6335,-32.2807z"/>
  </g>
  <path class="fil8" d="M1303.28 850.246c0.708662,-0.394488 -1.21654,0.0814961 -2.62323,0.187795l1.05945 0.344882 1.56378 -0.532678z"/>
 </g>
</svg>
