<svg id="_50" data-name="50" xmlns="http://www.w3.org/2000/svg" viewBox="0 0 512 512"><defs><style>.cls-1{fill:#7ed0fc;}.cls-2{fill:#ea1b8c;}.cls-3{fill:#f946a0;}.cls-4{fill:#ff76c1;}.cls-5{fill:#fff;}.cls-6{fill:#29a3fb;}</style></defs><title>50-heart-icons</title><circle class="cls-1" cx="256" cy="256" r="256"/><path class="cls-2" d="M409.05,283.21,273.89,418.36a25.28,25.28,0,0,1-35.78,0L126,306.21l-23-23A92,92,0,1,1,233,153.15l23,23,23-23A92,92,0,0,1,409.05,283.21Z"/><path class="cls-3" d="M409.05,283.21,299.56,392.7a25.29,25.29,0,0,1-35.79,0L151.61,280.54l-23-23a92,92,0,0,1-11.56-116,92,92,0,0,1,116,11.57l23,23,23-23A92,92,0,0,1,409.05,283.21Z"/><ellipse class="cls-4" cx="373.08" cy="169.49" rx="23.33" ry="38.57" transform="translate(14.73 368.23) rotate(-53.45)"/><ellipse class="cls-4" cx="409.8" cy="225.81" rx="14.74" ry="24.37" transform="translate(-28.72 62.63) rotate(-8.45)"/><path class="cls-5" d="M433.88,301.41H423.31A13.32,13.32,0,0,1,410,288.09V277.52a5.78,5.78,0,0,0-5.78-5.78h0a5.78,5.78,0,0,0-5.78,5.78v10.57a13.31,13.31,0,0,1-13.31,13.32H374.55a5.78,5.78,0,0,0-5.78,5.78h0a5.78,5.78,0,0,0,5.78,5.78h10.57a13.31,13.31,0,0,1,13.31,13.31v10.57a5.78,5.78,0,0,0,5.78,5.78h0a5.78,5.78,0,0,0,5.78-5.78V326.28A13.31,13.31,0,0,1,423.31,313h10.57a5.78,5.78,0,0,0,5.78-5.78h0A5.78,5.78,0,0,0,433.88,301.41Z"/><path class="cls-6" d="M127.54,352.27H117A13.31,13.31,0,0,1,103.66,339V328.39a5.78,5.78,0,0,0-5.78-5.78h0a5.78,5.78,0,0,0-5.78,5.78V339a13.31,13.31,0,0,1-13.31,13.31H68.22a5.78,5.78,0,0,0-5.78,5.79h0a5.78,5.78,0,0,0,5.78,5.78H78.79A13.31,13.31,0,0,1,92.1,377.15v10.57a5.78,5.78,0,0,0,5.78,5.78h0a5.78,5.78,0,0,0,5.78-5.78V377.15A13.31,13.31,0,0,1,117,363.84h10.57a5.78,5.78,0,0,0,5.79-5.78h0A5.79,5.79,0,0,0,127.54,352.27Z"/><path class="cls-6" d="M389.05,415.05h-8.12a10.24,10.24,0,0,1-10.24-10.24v-8.12a4.44,4.44,0,0,0-4.44-4.45h0a4.45,4.45,0,0,0-4.45,4.45v8.12a10.24,10.24,0,0,1-10.23,10.24h-8.12a4.44,4.44,0,0,0-4.45,4.44h0a4.44,4.44,0,0,0,4.45,4.44h8.12a10.24,10.24,0,0,1,10.23,10.24v8.12a4.45,4.45,0,0,0,4.45,4.45h0a4.44,4.44,0,0,0,4.44-4.45v-8.12a10.24,10.24,0,0,1,10.24-10.24h8.12a4.44,4.44,0,0,0,4.44-4.44h0A4.44,4.44,0,0,0,389.05,415.05Z"/><path class="cls-5" d="M215.15,198.33H207a10.23,10.23,0,0,1-10.23-10.23V180a4.44,4.44,0,0,0-4.44-4.45h0A4.45,4.45,0,0,0,187.9,180v8.12a10.23,10.23,0,0,1-10.23,10.23h-8.13a4.44,4.44,0,0,0-4.44,4.45h0a4.44,4.44,0,0,0,4.44,4.44h8.13a10.23,10.23,0,0,1,10.23,10.24v8.12a4.44,4.44,0,0,0,4.45,4.44h0a4.44,4.44,0,0,0,4.44-4.44v-8.12A10.23,10.23,0,0,1,207,207.22h8.13a4.44,4.44,0,0,0,4.44-4.44h0A4.44,4.44,0,0,0,215.15,198.33Z"/><path class="cls-6" d="M342.12,49.75H334a10.23,10.23,0,0,1-10.23-10.24V31.39A4.44,4.44,0,0,0,319.32,27h0a4.44,4.44,0,0,0-4.45,4.44v8.12a10.23,10.23,0,0,1-10.23,10.24h-8.13a4.44,4.44,0,0,0-4.44,4.44h0a4.44,4.44,0,0,0,4.44,4.45h8.13a10.23,10.23,0,0,1,10.23,10.23V77a4.45,4.45,0,0,0,4.45,4.45h0A4.44,4.44,0,0,0,323.76,77V68.87A10.23,10.23,0,0,1,334,58.64h8.13a4.44,4.44,0,0,0,4.44-4.45h0A4.44,4.44,0,0,0,342.12,49.75Z"/><path class="cls-5" d="M160.66,80.27h-8.13A10.23,10.23,0,0,1,142.3,70V61.91a4.44,4.44,0,0,0-4.45-4.44h0a4.44,4.44,0,0,0-4.44,4.44V70a10.23,10.23,0,0,1-10.23,10.23h-8.13a4.44,4.44,0,0,0-4.44,4.44h0a4.44,4.44,0,0,0,4.44,4.45h8.13a10.23,10.23,0,0,1,10.23,10.23v8.12a4.44,4.44,0,0,0,4.44,4.45h0a4.45,4.45,0,0,0,4.45-4.45V99.39a10.23,10.23,0,0,1,10.23-10.23h8.13a4.44,4.44,0,0,0,4.44-4.45h0A4.44,4.44,0,0,0,160.66,80.27Z"/></svg>